<svg xmlns="http://www.w3.org/2000/svg" viewBox="0 0 492.684 492.684"><g fill="#010002"><path d="M151.684 153.592c12-9.333 18.667-14 20-14l33-2 6.5 6c4.333 4 9.5 7.5 15.5 10.5s10.667 3.167 14 .5c4.669-2.667 7.667-6.333 9-11-1.332-3.336-6.667-7.669-16-13-2.667-2-6-5-10-9s-8-6.667-12-8c-4.667-.667-11.167-1.167-19.5-1.5s-13.5-.5-15.5-.5c-1.334-.667-7.667.833-19 4.5s-21 7.5-29 11.5c-4.667 2.656-4.667 2.323 0-1 18-13.333 28.667-22.333 32-27 10-2.667 17-5 21-7s8-3.667 12-5c12.667-2 19.667-3.333 21-4 4.667-1.333 8-4.333 10-9s1-8.667-3-12c-2.667-1.333-5.333-1.833-8-1.5s-7 1-13 2-10.667 1.5-14 1.5c-8.667.667-22.333 6.334-41 17-6.667 3.333-14.167 8.333-22.5 15-8.333 6.669-13.167 10.336-14.5 11-8.667 6.667 0-6 26-38 1.333-1.339 2.833-3.173 4.5-5.5 1.667-2.34 3.167-4.173 4.5-5.5 2-3.336 2.833-6.67 2.5-10-.333-3.334-1.5-6.167-3.5-8.5-2-2.346-3.667-3.18-5-2.5-1.334.667-3.668 3.167-7 7.5-3.333 4.333-6 7.167-8 8.5-.667 0-1.833 1.167-3.5 3.5s-3.834 5.167-6.5 8.5c-2.667 3.333-5 6-7 8-.667 1.333-2.667 3.5-6 6.5s-6 5.833-8 8.5c-2.667 4-5.667 9.167-9 15.5s-6 10.833-8 13.5c-1.333 1.333-3.333 3.5-6 6.5s-4.667 5.833-6 8.5c-6.667 13.333-12.667 29-18 47s-11.667 32-19 42c-2.667 4.667-10.667 10.333-24 17-5.333 44.667 2 80.667 22 108 14.667-8.668 26.5-14.334 35.5-17 9-2.668 19.833-4 32.5-4 3.334.666 7.667 1.666 13 3 5.334 1.332 9.667 2 13 2 .667-.668 8.667-3 24-7 4.667-2 10.834-4.334 18.5-7 7.667-2.668 13.834-5 18.5-7 2.667-.668 6.834-1.668 12.5-3 5.667-1.334 10.5-2.668 14.5-4 1.333-.668 3-1 5-1 1.333-.668 2.333-1.5 3-2.5s1.667-2.168 3-3.5c2.667-3.334 5-8.334 7-15 2-6.668 3.667-11.668 5-15 4.667-9.334 7.167-15.668 7.5-19 .333-3.333-.833-5.333-3.5-6 2.667-8.667 3.667-17.667 3-27 0-2.667.167-5.167.5-7.5.333-2.337 0-4.671-1-7-1-2.337-2.833-4.171-5.5-5.5-26-20.667-40.333-31-43-31-26.667.667-44 3.667-52 9-1.592.796-2.576 1.349-2.98 1.669-.012.127-.02.24-.02.331-.269 0-.253-.114.02-.331.078-.811.404-2.365.98-4.669.667-.666 7-5.666 19-15zm-19.5 64c.333-.667.833-1.5 1.5-2.5s1.5-1.833 2.5-2.5 2.167-1.333 3.5-2c3.333-2.663 8.166-4.829 14.5-6.5 6.333-1.667 14.5-5.167 24.5-10.5l1 1c.667.667 1.833 1.667 3.5 3s3.667 2.833 6 4.5 5 3.167 8 4.5c3 1.329 6.167 2.663 9.5 4l1.5 5.5c1 3.667 2.667 8 5 13s4.833 8.833 7.5 11.5c-6.666 4.667-11.832 9.667-15.5 15-3.667 5.332-6 9.332-7 12-1 2.666-1.833 4-2.5 4-17.333-2.668-32.333-1.668-45 3-3.333-6.668-7.667-12.334-13-17-5.333-4.668-9-8.334-11-11-2-2.667-2.333-6.333-1-11 .667-1.333 1.333-3.333 2-6s1.167-4.333 1.5-5 .833-1.833 1.5-3.5 1.167-2.833 1.5-3.5zM491.684 212.594c-.666-6-1.5-11.667-2.5-17-1-5.334-2.166-10.167-3.5-14.5a137.226 137.226 0 00-4.5-12.5c-1.666-4-3.166-7.333-4.5-10-1.332-2.667-2.666-4.833-4-6.5-1.332-1.667-2.332-3-3-4l-1-1.5c-14 8-25.5 13.5-34.5 16.5s-20.166 4.167-33.5 3.5c-2.666 0-6.666-.667-12-2-5.332-1.333-10-2-14-2-2 0-10 2.667-24 8-4.666 1.333-10.83 3.333-18.498 6s-13.836 5-18.5 7c-2.668.667-6.835 1.5-12.499 2.5-5.666 1-10.166 2.167-13.5 3.5a55.776 55.776 0 01-4.5 2c-1.666.667-3 1.5-4 2.5s-1.832 2.167-2.5 3.5c-2.666 3.333-5 8.167-7 14.5s-4 11.5-6 15.5c-4.666 9.334-7 15.667-7 18.999 0 3.334 1.334 5.334 4 6-3.332 8.668-4.666 17.668-4 27 .668 2.668.834 5.168.5 7.5-.332 2.334 0 4.5 1 6.5s2.834 4 5.5 6c26.668 20 41 30.334 43 31 27.333-1.332 44.665-4.666 51.997-10l3-1c.668-.666.334 1-1 5-.666.668-7 5.5-18.998 14.5-12 9-19 13.5-21 13.5l-31.999 3-7-6.5c-4.668-4.332-9.834-7.832-15.5-10.5-5.666-2.666-10.5-2.666-14.5 0-4 2.668-7 6.334-9 11 1.333 2.668 7 7.334 17 14 2.668 1.334 6 4 10 8s8 6.668 12 8c4.668.668 11.168 1 19.5 1 8.336 0 13.17.334 14.499 1 2 0 8.669-1.832 20-5.5 11.332-3.666 20.998-7.5 28.998-11.5 4.668-2.666 4.668-2 0 2-18 13.334-28.664 22-31.998 26-10 3.334-17 6-21 8s-7.999 3.334-11.999 4c-12.666 2.668-19.666 4.334-21 5-4.666 1.334-8 4.168-10 8.5-2 4.334-1.332 8.168 2 11.5 3.338 1.334 6.172 1.834 8.5 1.5 2.334-.332 6.5-1 12.5-2s11-1.5 15-1.5c7.334 0 20.999-5.332 40.997-16a118.368 118.368 0 0013.5-9 350.238 350.238 0 0013-10.5c4.334-3.666 7.5-6.166 9.5-7.5 9.332-6 .666 7-26 39-.678 1.334-1.844 3-3.5 5-1.666 2-3.5 4-5.5 5.999-2 3.335-2.666 6.669-2 10 .668 3.335 1.834 6.169 3.5 8.498 1.668 2.339 3.5 2.839 5.5 1.5 1.334-.661 3.5-3 6.5-6.998 3-4 5.5-6.665 7.5-8 .668-.665 1.834-2 3.5-4a517.831 517.831 0 006.5-7.999c2.668-3.332 5-6 7-8l7.5-7.5c3-3 5.168-5.5 6.5-7.5 3.342-4 6.676-9.166 10-15.5 3.334-6.332 6-11.166 8-14.5.668-.666 2.334-2.5 5-5.5 2.668-3 5-5.832 7-8.5 6.668-13.332 12.5-29.167 17.5-47.5 5-18.332 11.168-32.5 18.5-42.5 3.334-4 11.334-9.332 24-16 1.334-7.333 2-14.667 2-22s-.332-13.999-1-19.999zm-124 43.998c-3.332 10-5.5 16-6.5 18s-3.5 4.668-7.5 8c-4 2.666-9.166 4.832-15.498 6.5s-14.163 5.168-23.5 10.5l-3-3c-2-2-5.499-4.5-10.499-7.5s-9.832-5.166-14.5-6.5v-1c0-.666-.166-1.332-.5-2-.328-.666-.662-1.666-1-3a19.473 19.473 0 00-1.5-4 19.532 19.532 0 01-1.5-4c-.332-1.332-.832-2.832-1.5-4.5a19.57 19.57 0 00-2.5-4.5l-3-4c-1-1.332-1.832-2.332-2.5-3 6-4.667 11-9.667 15-15s6.5-9.333 7.5-12 1.834-4 2.5-4c17.999 2 32.667.667 43.999-4 3.998 7.333 8.498 13.333 13.498 18 5 4.666 8.668 8.332 11 10.999 2.334 2.669 2.834 6.001 1.5 10.001z"/></g></svg>