<svg xmlns="http://www.w3.org/2000/svg" viewBox="0 0 18.556 18.898" height="71.426" width="70.134"><defs><clipPath id="a" clipPathUnits="userSpaceOnUse"><path d="M595.56 285.6h44.93v-45.9h-44.93z"/></clipPath></defs><g clip-path="url(#a)" transform="matrix(.35278 0 0 -.35278 -208.747 102.106)"><path d="M640.49 281.26l-4.34-4.34-.07.07-4.27 4.27 4.34 4.34z" fill="#fb0"/><path d="M633.96 274.73l-3.9-3.9-2.52 1.82 3.941 3.94z" fill="#ff9e00"/><path d="M634.32 275.23l.07-.07-.43-.43-2.48 1.86-2.49 1.85 1.06 1.06z" fill="#ff9e00"/><path d="M632.19 269.31v-24.43c0-.64-.52-1.15-1.15-1.15h-30.3c-.63 0-1.15.51-1.15 1.15v30.29c0 .64.52 1.15 1.15 1.15h21.68l2.59-1.86-15.16-15.16-4.61-8.95 8.95 4.61 15.87 15.87z" fill="#fb0"/><path d="M630.06 270.83l3.9 3.9 2.25-1.68v-29.81c0-1.95-1.59-3.54-3.54-3.54h-33.56a3.55 3.55 0 00-3.55 3.54v33.56c0 1.96 1.59 3.55 3.55 3.55h27.33l2.55-1.91-3.98-3.98-2.59 1.86h-21.68c-.63 0-1.15-.51-1.15-1.15v-30.29c0-.64.52-1.15 1.15-1.15h30.3c.63 0 1.15.51 1.15 1.15v24.43z" fill="#00607f"/><path d="M634.39 275.16l-.07.07-4.27 4.27 1.76 1.76 4.27-4.27.07-.07zM631.48 276.59l-3.94-3.94-2.53 1.81 3.98 3.98zM627.54 272.65l2.52-1.82-15.87-15.87-1.15 3.19z" fill="#ff9e00"/><path d="M627.54 272.65l-14.5-14.5-3.19 1.15 15.16 15.16z" fill="#ff9e00"/><path d="M613.04 258.15l1.15-3.19-4.34 4.34z" fill="#fafbfc"/><path d="M605.24 250.35l4.61 8.95 4.34-4.34z" fill="#fafbfc"/></g><path d="M12.247 3.205H2.605c-.691 0-1.252.56-1.252 1.252v11.84c0 .687.561 1.248 1.252 1.248h11.84c.688 0 1.249-.56 1.249-1.249V5.78" fill="none" stroke="#141414" stroke-width=".70556" stroke-linecap="round" stroke-linejoin="round" stroke-miterlimit="10"/><path d="M10.829 4.627H3.18a.406.406 0 00-.405.405v10.686c0 .226.183.406.405.406h10.69c.222 0 .406-.18.406-.406V7.1" fill="none" stroke="#141414" stroke-width=".70556" stroke-linecap="round" stroke-linejoin="round" stroke-miterlimit="10"/><path d="M7.925 12.162l-3.157 1.626 1.626-3.157 5.348-5.348 1.404-1.404.374-.374.621-.621 1.531-1.531 1.531 1.53-1.53 1.532-.622.62-.151.152-1.376 1.376zM14.141 2.884l1.507 1.506M13.52 3.505l1.507 1.506" fill="none" stroke="#141414" stroke-width=".70556" stroke-linecap="round" stroke-linejoin="round" stroke-miterlimit="10"/><path d="M6.394 10.63l1.125.407.406 1.125M7.52 11.037l5.115-5.116 1.39-1.39.236-.236" fill="none" stroke="#141414" stroke-width=".70556" stroke-linecap="round" stroke-linejoin="round" stroke-miterlimit="10"/><g><path d="M5.329 12.938l.29.29" fill="none" stroke="#141414" stroke-width=".70556" stroke-linecap="round" stroke-linejoin="round" stroke-miterlimit="10"/></g></svg>